# xmcd
#
# Track frame offsets:
#	150
#	18477
#	35647
#	49650
#	70635
#	82812
#	99762
#	115927
#	132672
#	148275
#	163357
#	179917
#	195870
#	213862
#	228630
#	245532
#	262357
#	278967
#	296025
#	308310
#
# Disc length: 4331
#
# Revision: 3
# Processed by: cddbd v1.5.1PL0 Copyright (c) Steve Scherf et al.
# Submitted via: audiograbber 1.80
# Normalized: r1:TSWAP
#
DISCID=2e10e914
DTITLE=Various Artist - MCA Song Catalog, Country Vol. 2 (1985-1989)
DYEAR=1900
DGENRE=
TTITLE0=The Oak Ridge Boys - Make My Life With You
TTITLE1=Don Williams - Heartbeat In The Darkness
TTITLE2=Lee Greenwood - Don't Underestimate My Love For You
TTITLE3=Alabama - She And I
TTITLE4=The Judds - Rockin' With The Rhythm Of The Rain
TTITLE5=Kenny Rogers - Morning Desire
TTITLE6=T.g. Sheppard - Strong Heart
TTITLE7=Gary Morris - 100% Chance Of Rain
TTITLE8=Reba Mcentire - One Promise Too Late
TTITLE9=Ricky Van Shelton - Somebody Lied
TTITLE10=The Judds - I Know Where I'm Going
TTITLE11=Randy Travis - Forever And Ever Amen
TTITLE12=T. Graham Browne - Don't Go To Strangers
TTITLE13=The Forester Sisters - You Again
TTITLE14=Tanya Tucker W/ Paul Davis and Paul Overstreet - I Won't Take Less Than Your Love
TTITLE15=The Judds - Turn It Loose
TTITLE16=Keith Whitley - When You Say Nothing At All
TTITLE17=Restless Heart - Wheels
TTITLE18=Tanya Tucker - Strong Enough To Bend
TTITLE19=Randy Travis - Deeper Than The Holler
EXTD=
EXTT0=
EXTT1=
EXTT2=
EXTT3=
EXTT4=
EXTT5=
EXTT6=
EXTT7=
EXTT8=
EXTT9=
EXTT10=
EXTT11=
EXTT12=
EXTT13=
EXTT14=
EXTT15=
EXTT16=
EXTT17=
EXTT18=
EXTT19=
PLAYORDER=
